<svg id="Layer_1" data-name="Layer 1" xmlns="http://www.w3.org/2000/svg" viewBox="0 0 400 402.96"><defs><style>.cls-1{fill:#147199;}</style></defs><path class="cls-1" d="M284.45,0H115.55A115.55,115.55,0,0,0,0,115.55V287.41A115.55,115.55,0,0,0,115.55,403h168.9A115.55,115.55,0,0,0,400,287.41V115.55A115.55,115.55,0,0,0,284.45,0Zm80.24,294.73c-3.6,6.48-11.37,8.61-18.57,4.6-11.39-6.34-22.6-13-33.89-19.51-1.06-.61-2.12-1-4.32-2.1v36c0,9.15-5.26,15.35-12.86,15.51-7.78.15-13.11-6.2-13.09-15.74,0-15.43.21-30.86.09-46.29,0-2-.84-5.09-2.3-6-21.74-12.85-43.65-25.41-66.19-38.42a48.69,48.69,0,0,0-.54,4.9c0,23.34.07,46.68-.12,70,0,3.66,1.12,5.63,4.29,7.36,13.85,7.59,27.59,15.41,41.34,23.2,5,2.85,8.16,7.14,7.53,13.06-.56,5.26-3.46,9.86-8.79,10.74a21.14,21.14,0,0,1-12.27-1.7c-10.54-5.3-20.65-11.45-32-17.88v42.1c0,9.3-5,15.21-12.82,15.31-8,.11-13.11-5.91-13.14-15.59V332.5c-11.16,6.29-21.26,12.39-31.76,17.69A21.27,21.27,0,0,1,143,352.25c-5.52-.92-8.62-5.6-9.09-11.15s2.44-9.86,7.3-12.62c13.4-7.6,26.74-15.31,40.31-22.61,4.18-2.25,5.64-4.83,5.59-9.59-.26-24.11-.12-48.23-.12-73.22-2,.94-3.61,1.5-5,2.31-20,11.55-40,23.22-60.07,34.62-3.26,1.85-4.19,4-4.13,7.52.24,15.43.23,30.86.26,46.29,0,9.15-5.17,15.34-12.8,15.45S92.15,323,92.1,314c-.07-11.78,0-23.57,0-36.62C82.29,283,73.63,288,65,292.92c-3.6,2.07-7.11,4.28-10.77,6.23-7.4,4-14.88,2.2-18.66-4.22s-1.49-14,5.69-18.21c12.06-7.14,24.26-14.05,37.47-21.67-4.21-2.52-7.76-4.67-11.34-6.79-6.8-4-13.64-8-20.41-12.07-7.72-4.66-10-11.72-6.13-18.46S52.4,209.39,60.33,214c13.47,7.87,26.83,16,40.39,23.66,1.82,1,5.09,1.51,6.75.58,21.33-12,42.5-24.35,63.7-36.62a22.68,22.68,0,0,0,2.29-1.86c-5.72-3.32-10.94-6.37-16.18-9.4-16.07-9.29-32.21-18.48-48.17-28-3.37-2-5.78-1.82-9,.15Q79.85,174.84,59.3,186.64c-6.19,3.56-12.47,2.56-16.76-2.09-3.94-4.29-4.8-10.47-1.47-15.29a21.85,21.85,0,0,1,6.55-5.78c10.07-6.15,20.29-12.06,31.16-18.48l-33-19c-1.88-1.08-3.82-2.09-5.61-3.32-6.25-4.28-8.1-11.57-4.55-17.61A12.78,12.78,0,0,1,53,100.36l.14.08c10.74,5.87,21.25,12.16,31.87,18.27,1.86,1.07,3.76,2.09,6.93,3.85v-9.85c0-9.1,0-18.2.12-27.3C92.22,77,98,70.7,105.29,70.83S118.05,77,118,85.71c0,15.82-.23,31.65,0,47.47,0,2.1,1.37,5.13,3,6.12,20.91,12.36,42,24.43,63.06,36.55a21.54,21.54,0,0,0,2.56,1c.14-1.9.33-3.39.33-4.88,0-23.15-.09-46.29.12-69.43,0-3.91-1.21-6-4.58-7.8-13.87-7.57-27.6-15.4-41.35-23.2-4.86-2.75-7.75-7-7.26-12.63s3.6-10.11,9.12-11.19a18.85,18.85,0,0,1,11.19,1.59c9.18,4.56,18,9.95,26.91,15,1.67.93,3.42,1.72,5.9,3,0-14.94-.11-29.1,0-43.26.11-10.36,9.36-16.71,18.25-12.61,5.39,2.49,7.72,7,7.69,12.92-.06,14,0,28.05,0,43.17L237.24,54c3.45-1.92,6.8-4,10.36-5.73,6.56-3.1,13.36-.84,16.78,5.34s2,13.1-4.4,17c-8.91,5.48-18.14,10.45-27.24,15.62-5.49,3.13-11.07,6.12-16.44,9.44-1.42.88-3.15,2.76-3.16,4.19-.19,25.48-.14,51-.14,77.33,2.36-1.23,4.07-2,5.71-3,19.51-11.24,39-22.61,58.57-33.65,3.85-2.16,5.06-4.59,5-8.87C281.9,117.85,282,104,282,90.16c-.1-12.86,4.37-19.48,13-19.35s12.87,6.59,12.93,19q.06,15.14.16,30.26a13.49,13.49,0,0,0,.46,2c2-1,3.86-1.86,5.63-2.87,10.28-5.91,20.5-11.91,30.81-17.76,8-4.56,15.8-3,19.58,3.87,3.66,6.59,1.16,14-6.46,18.49-11.93,7-23.94,13.81-36.71,21.15,3.48,2.17,6.37,4,9.32,5.78,7.47,4.44,15,8.77,22.45,13.26,7.62,4.6,9.89,11.94,5.91,18.52s-11.55,8.16-19.13,3.77c-13.33-7.73-26.65-15.47-39.79-23.53-3.48-2.13-6-2.22-9.53-.14-19.39,11.44-38.94,22.61-58.43,33.88-1.69,1-3.34,2-5.65,3.4,1.82,1.26,3.13,2.3,4.57,3.14,20,11.58,40.05,23.07,60,34.77,3.13,1.84,5.43,1.82,8.53-.07,13.17-8,26.49-15.74,39.8-23.51,8-4.7,15.55-3.39,19.62,3.3s1.73,14.09-6.27,18.88c-10.15,6.08-20.36,12-31.5,18.63,9.16,5.32,17.55,10.2,26,15.06,3.93,2.28,7.95,4.42,11.8,6.83C365.91,281.16,368.15,288.51,364.69,294.73Z"/></svg>